<svg id="Icons" height="512" viewBox="0 0 64 64" width="512" xmlns="http://www.w3.org/2000/svg"><path d="m57.5 41.42v-3.42a18 18 0 0 0 -36 0v3.42a5 5 0 0 0 -3 4.58v9a5 5 0 0 0 5 5h3.05a3.49 3.49 0 0 0 7-.5v-18a3.49 3.49 0 0 0 -6-2.44v-1.06a12 12 0 0 1 24 0v1.06a3.49 3.49 0 0 0 -6 2.44v18a3.49 3.49 0 0 0 7 .5h3a5 5 0 0 0 5-5v-9a5 5 0 0 0 -3.05-4.58zm-4-3.42h2v3h-2zm-30 0h2v3h-2zm5 3.5a1.5 1.5 0 0 1 3 0v18a1.5 1.5 0 0 1 -3 0zm22 18a1.5 1.5 0 0 1 -3 0v-18a1.5 1.5 0 0 1 3 0z" fill="#c4a2fc"/><path d="m28.5 17h-2v-7a9 9 0 0 0 -18 0v7h-2a3 3 0 0 0 -3 3v6a14 14 0 0 0 13 14v4h-5a3 3 0 0 0 -3 3v2a2 2 0 0 0 2 2h14a2 2 0 0 0 2-2v-2a3 3 0 0 0 -3-3h-5v-4a14 14 0 0 0 13-14v-6a3 3 0 0 0 -3-3zm-4 30v2h-14v-2a1 1 0 0 1 1-1h12a1 1 0 0 1 1 1zm-7-44a7 7 0 0 1 6.92 6h-3.92a1 1 0 0 0 0 2h4v6h-4a1 1 0 0 0 0 2h4v6h-4a1 1 0 0 0 0 2h3.92a7 7 0 0 1 -13.84 0h3.92a1 1 0 0 0 0-2h-4v-6h4a1 1 0 0 0 0-2h-4v-6h4a1 1 0 0 0 0-2h-3.92a7 7 0 0 1 6.92-6zm12 23a12 12 0 0 1 -24 0v-6a1 1 0 0 1 1-1h2v7a9 9 0 0 0 18 0v-7h2a1 1 0 0 1 1 1z" fill="#151a6a"/></svg>